<?xml version="1.0" encoding="utf-8"?>
<!-- Generator: Adobe Illustrator 24.0.2, SVG Export Plug-In . SVG Version: 6.00 Build 0)  -->
<svg version="1.1" id="Layer_1" xmlns="http://www.w3.org/2000/svg" xmlns:xlink="http://www.w3.org/1999/xlink" x="0px" y="0px"
	 viewBox="0 0 341 89" style="enable-background:new 0 0 341 89;" xml:space="preserve">
<style type="text/css">
	.st0{fill:#E93A26;}
	.st1{fill:#FFFFFF;}
</style>
<g>
	<path class="st0" d="M11.1,67.78l-3-4.3h2.86l1.61,2.37l1.59-2.37h2.77l-3,4.25l3.37,4.83h-2.86l-1.91-2.86l-1.91,2.86H7.82
		L11.1,67.78z"/>
	<path class="st1" d="M29.17,67.18h-8.91V65.3h8.91V67.18z M29.17,70.94h-8.91v-1.88h8.91V70.94z"/>
	<path class="st1" d="M36,62.07H33.5v-2.05H36V62.07z M33.5,63.48H36v9.08H33.5V63.48z"/>
	<path class="st1" d="M37.63,63.48h2.38v1.26h0.05c0.64-1.02,1.73-1.51,2.79-1.51c2.66,0,3.34,1.49,3.34,3.74v5.58h-2.51v-5.13
		c0-1.49-0.44-2.23-1.61-2.23c-1.36,0-1.94,0.76-1.94,2.6v4.76h-2.51V63.48z"/>
	<path class="st1" d="M54.25,71.4h-0.04c-0.58,0.98-1.61,1.4-2.77,1.4c-2.75,0-4.09-2.35-4.09-4.86c0-2.44,1.36-4.71,4.04-4.71
		c1.08,0,2.14,0.46,2.72,1.35h-0.02h0.04v-4.57h2.51v12.54h-2.38V71.4z M52.06,65.11c-1.64,0-2.21,1.4-2.21,2.9
		c0,1.42,0.65,2.92,2.21,2.92c1.66,0,2.15-1.44,2.15-2.93C54.22,66.52,53.69,65.11,52.06,65.11z"/>
	<path class="st1" d="M60.23,68.62c0.07,1.58,0.85,2.3,2.24,2.3c1.01,0,1.82-0.61,1.98-1.18h2.21c-0.71,2.14-2.21,3.06-4.27,3.06
		c-2.88,0-4.66-1.97-4.66-4.78c0-2.72,1.89-4.79,4.66-4.79c3.11,0,4.61,2.6,4.43,5.39H60.23z M64.31,67.04
		c-0.23-1.26-0.78-1.93-1.99-1.93c-1.59,0-2.05,1.23-2.08,1.93H64.31z"/>
	<path class="st1" d="M67.94,63.48h2.38v1.16h0.04c0.6-0.97,1.59-1.41,2.72-1.41c2.86,0,4.15,2.3,4.15,4.88
		c0,2.42-1.34,4.69-4.01,4.69c-1.09,0-2.14-0.47-2.74-1.37h-0.04v4.32h-2.51V63.48z M74.72,68.04c0-1.44-0.58-2.93-2.19-2.93
		c-1.64,0-2.17,1.46-2.17,2.93c0,1.48,0.56,2.88,2.19,2.88C74.19,70.92,74.72,69.52,74.72,68.04z"/>
	<path class="st1" d="M80.44,68.62c0.07,1.58,0.85,2.3,2.24,2.3c1.01,0,1.82-0.61,1.98-1.18h2.21c-0.71,2.14-2.21,3.06-4.27,3.06
		c-2.88,0-4.66-1.97-4.66-4.78c0-2.72,1.89-4.79,4.66-4.79c3.11,0,4.61,2.6,4.43,5.39H80.44z M84.52,67.04
		c-0.23-1.26-0.78-1.93-1.99-1.93c-1.59,0-2.05,1.23-2.08,1.93H84.52z"/>
	<path class="st1" d="M88.15,63.48h2.38v1.26h0.05c0.64-1.02,1.73-1.51,2.79-1.51c2.66,0,3.34,1.49,3.34,3.74v5.58H94.2v-5.13
		c0-1.49-0.44-2.23-1.61-2.23c-1.36,0-1.94,0.76-1.94,2.6v4.76h-2.51V63.48z"/>
	<path class="st1" d="M104.77,71.4h-0.04c-0.58,0.98-1.61,1.4-2.77,1.4c-2.75,0-4.09-2.35-4.09-4.86c0-2.44,1.36-4.71,4.04-4.71
		c1.08,0,2.14,0.46,2.72,1.35h-0.02h0.04v-4.57h2.51v12.54h-2.38V71.4z M102.59,65.11c-1.64,0-2.21,1.4-2.21,2.9
		c0,1.42,0.65,2.92,2.21,2.92c1.66,0,2.15-1.44,2.15-2.93C104.74,66.52,104.21,65.11,102.59,65.11z"/>
	<path class="st1" d="M110.76,68.62c0.07,1.58,0.85,2.3,2.24,2.3c1.01,0,1.82-0.61,1.98-1.18h2.21c-0.71,2.14-2.21,3.06-4.27,3.06
		c-2.88,0-4.66-1.97-4.66-4.78c0-2.72,1.89-4.79,4.66-4.79c3.11,0,4.61,2.6,4.43,5.39H110.76z M114.83,67.04
		c-0.23-1.26-0.78-1.93-1.99-1.93c-1.59,0-2.05,1.23-2.08,1.93H114.83z"/>
	<path class="st1" d="M118.47,63.48h2.38v1.26h0.05c0.64-1.02,1.73-1.51,2.79-1.51c2.66,0,3.34,1.49,3.34,3.74v5.58h-2.51v-5.13
		c0-1.49-0.44-2.23-1.61-2.23c-1.36,0-1.94,0.76-1.94,2.6v4.76h-2.51V63.48z"/>
	<path class="st1" d="M131.76,63.48h1.84v1.67h-1.84v4.5c0,0.84,0.21,1.05,1.06,1.05c0.26,0,0.51-0.02,0.78-0.07v1.95
		c-0.42,0.07-0.97,0.09-1.46,0.09c-1.54,0-2.88-0.35-2.88-2.16v-5.36h-1.52v-1.67h1.52v-2.72h2.51V63.48z"/>
	<path class="st1" d="M134.51,60.02h2.51v12.54h-2.51V60.02z"/>
	<path class="st1" d="M143.14,73.7c-0.55,1.46-1.41,2.05-3.14,2.05c-0.51,0-1.02-0.04-1.54-0.09v-2.05
		c0.48,0.04,0.97,0.11,1.46,0.09c0.86-0.09,1.15-0.98,0.86-1.7l-3.21-8.52h2.68l2.06,6.22h0.04l1.99-6.22h2.59L143.14,73.7z"/>
	<path class="st1" d="M156.43,63.23c2.88,0,4.73,1.9,4.73,4.79c0,2.88-1.85,4.78-4.73,4.78c-2.86,0-4.71-1.9-4.71-4.78
		C151.71,65.13,153.57,63.23,156.43,63.23z M156.43,70.92c1.71,0,2.22-1.46,2.22-2.9c0-1.46-0.51-2.92-2.22-2.92
		c-1.69,0-2.21,1.46-2.21,2.92C154.22,69.47,154.73,70.92,156.43,70.92z"/>
	<path class="st1" d="M162.07,63.48h2.38v1.69h0.04c0.46-1.14,1.69-1.93,2.91-1.93c0.18,0,0.39,0.04,0.55,0.09v2.32
		c-0.23-0.05-0.6-0.09-0.9-0.09c-1.84,0-2.47,1.32-2.47,2.92v4.09h-2.51V63.48z"/>
	<path class="st1" d="M177.36,71.98c0,1.49-0.53,4.02-4.73,4.02c-1.8,0-3.9-0.84-4.02-2.92h2.49c0.23,0.93,0.99,1.25,1.87,1.25
		c1.39,0,2.03-0.95,2.01-2.25v-1.19h-0.04c-0.55,0.95-1.64,1.41-2.74,1.41c-2.74,0-3.9-2.07-3.9-4.57c0-2.35,1.36-4.5,3.92-4.5
		c1.2,0,2.12,0.4,2.72,1.46h0.04v-1.21h2.38V71.98z M174.97,67.9c0-1.48-0.51-2.79-2.14-2.79c-1.41,0-2.03,1.23-2.03,2.58
		c0,1.3,0.49,2.72,2.03,2.72C174.27,70.42,174.97,69.2,174.97,67.9z"/>
	<path class="st1" d="M178.56,66.27c0.14-2.34,2.24-3.04,4.29-3.04c1.82,0,4.01,0.4,4.01,2.58v4.72c0,0.83,0.09,1.65,0.32,2.02
		h-2.54c-0.09-0.28-0.16-0.58-0.18-0.88c-0.79,0.83-1.96,1.12-3.07,1.12c-1.73,0-3.11-0.86-3.11-2.72c0-2.05,1.55-2.55,3.11-2.76
		c1.54-0.23,2.97-0.18,2.97-1.19c0-1.07-0.74-1.23-1.62-1.23c-0.95,0-1.57,0.39-1.66,1.37H178.56z M184.34,68.11
		c-0.42,0.37-1.31,0.39-2.08,0.53c-0.78,0.16-1.48,0.42-1.48,1.33c0,0.93,0.72,1.16,1.54,1.16c1.96,0,2.03-1.55,2.03-2.09V68.11z"/>
	<path class="st1" d="M188.44,63.48h2.38v1.26h0.05c0.64-1.02,1.73-1.51,2.79-1.51c2.66,0,3.34,1.49,3.34,3.74v5.58h-2.51v-5.13
		c0-1.49-0.44-2.23-1.61-2.23c-1.36,0-1.94,0.76-1.94,2.6v4.76h-2.51V63.48z"/>
	<path class="st1" d="M200.77,62.07h-2.51v-2.05h2.51V62.07z M198.27,63.48h2.51v9.08h-2.51V63.48z"/>
	<path class="st1" d="M201.83,70.68l4.75-5.32h-4.39v-1.88h7.69v1.88l-4.75,5.32h5.08v1.88h-8.38V70.68z"/>
	<path class="st1" d="M213.27,68.62c0.07,1.58,0.85,2.3,2.24,2.3c1.01,0,1.82-0.61,1.98-1.18h2.21c-0.71,2.14-2.21,3.06-4.27,3.06
		c-2.88,0-4.66-1.97-4.66-4.78c0-2.72,1.89-4.79,4.66-4.79c3.11,0,4.61,2.6,4.43,5.39H213.27z M217.34,67.04
		c-0.23-1.26-0.78-1.93-1.99-1.93c-1.59,0-2.05,1.23-2.08,1.93H217.34z"/>
	<path class="st1" d="M227.49,71.4h-0.04c-0.58,0.98-1.61,1.4-2.77,1.4c-2.75,0-4.09-2.35-4.09-4.86c0-2.44,1.36-4.71,4.04-4.71
		c1.08,0,2.14,0.46,2.72,1.35h-0.02h0.04v-4.57h2.51v12.54h-2.38V71.4z M225.3,65.11c-1.64,0-2.21,1.4-2.21,2.9
		c0,1.42,0.65,2.92,2.21,2.92c1.66,0,2.15-1.44,2.15-2.93C227.46,66.52,226.93,65.11,225.3,65.11z"/>
	<path class="st1" d="M239.02,62.34h-3.78v-2.32h10.32v2.32h-3.78v10.22h-2.77V62.34z"/>
	<path class="st1" d="M246.66,60.02h9.42v2.32h-6.65v2.69h6.11v2.14h-6.11v3.07h6.79v2.32h-9.57V60.02z"/>
	<path class="st1" d="M257.39,60.02h5.44c3.26,0,5.72,2.04,5.72,6.2c0,3.64-1.87,6.34-5.72,6.34h-5.44V60.02z M260.16,70.24h2.47
		c1.61,0,3.14-0.98,3.14-3.76c0-2.53-0.88-4.14-3.64-4.14h-1.98V70.24z"/>
	<path class="st1" d="M276.46,68.62c0.07,1.58,0.85,2.3,2.24,2.3c1.01,0,1.82-0.61,1.98-1.18h2.21c-0.71,2.14-2.21,3.06-4.27,3.06
		c-2.88,0-4.66-1.97-4.66-4.78c0-2.72,1.89-4.79,4.66-4.79c3.11,0,4.61,2.6,4.43,5.39H276.46z M280.54,67.04
		c-0.23-1.26-0.78-1.93-1.99-1.93c-1.59,0-2.05,1.23-2.08,1.93H280.54z"/>
	<path class="st1" d="M288.87,72.56h-2.79l-3.12-9.08h2.63l1.92,6.2h0.04l1.92-6.2h2.49L288.87,72.56z"/>
	<path class="st1" d="M294.36,68.62c0.07,1.58,0.85,2.3,2.24,2.3c1.01,0,1.82-0.61,1.98-1.18h2.21c-0.71,2.14-2.21,3.06-4.27,3.06
		c-2.88,0-4.66-1.97-4.66-4.78c0-2.72,1.89-4.79,4.66-4.79c3.11,0,4.61,2.6,4.43,5.39H294.36z M298.43,67.04
		c-0.23-1.26-0.78-1.93-1.99-1.93c-1.59,0-2.05,1.23-2.08,1.93H298.43z"/>
	<path class="st1" d="M302.07,63.48h2.38v1.26h0.05c0.64-1.02,1.73-1.51,2.79-1.51c2.67,0,3.34,1.49,3.34,3.74v5.58h-2.51v-5.13
		c0-1.49-0.44-2.23-1.61-2.23c-1.36,0-1.94,0.76-1.94,2.6v4.76h-2.51V63.48z"/>
	<path class="st1" d="M315.36,63.48h1.84v1.67h-1.84v4.5c0,0.84,0.21,1.05,1.06,1.05c0.26,0,0.51-0.02,0.78-0.07v1.95
		c-0.42,0.07-0.97,0.09-1.46,0.09c-1.54,0-2.88-0.35-2.88-2.16v-5.36h-1.52v-1.67h1.52v-2.72h2.51V63.48z"/>
	<g>
		<g>
			<path class="st0" d="M18.74,19.07H6.89V8.29h36.7v10.78H31.75v31.28H18.74V19.07z"/>
			<path class="st0" d="M45.61,8.29h35.63v10.78h-22.6v5.24h22.6v10.02h-22.6v5.24h22.61v10.78H45.61V8.29z"/>
			<path class="st0" d="M83.43,8.29h21.37c14.09,0,19.06,10.37,19.06,20.97c0,12.9-6.87,21.09-21.61,21.09H83.43V8.29z M96.45,39.57
				h5.09c8.11,0,9.3-6.54,9.3-10.49c0-2.65-0.83-10.01-10.25-10.01h-4.14V39.57z"/>
		</g>
		<g>
			<g>
				<path class="st0" d="M142.58,34.14l-3.97-6.55l-3.87,6.55h-9.54l9.06-13.25l-8.72-12.68h9.54l3.53,6.27l3.64-6.27h9.54
					l-8.72,12.68l9.06,13.25H142.58z"/>
			</g>
		</g>
	</g>
	<g>
		<path class="st1" d="M162.16,8.47h19.13c3.15,0,5.75,0.47,7.79,1.4c3.88,1.79,5.82,5.08,5.82,9.89c0,2.51-0.52,4.56-1.56,6.16
			c-1.04,1.6-2.5,2.88-4.37,3.85c1.64,0.67,2.88,1.54,3.71,2.62c0.83,1.08,1.29,2.84,1.39,5.27l0.2,5.62
			c0.06,1.6,0.19,2.78,0.4,3.56c0.34,1.33,0.95,2.19,1.83,2.57v0.94h-6.99c-0.19-0.36-0.34-0.83-0.46-1.4
			c-0.11-0.57-0.21-1.67-0.29-3.31l-0.34-6.99c-0.13-2.74-1.12-4.57-2.98-5.5c-1.06-0.51-2.72-0.77-4.98-0.77h-12.61v17.96h-5.7
			V8.47z M180.68,27.66c2.6,0,4.66-0.53,6.17-1.6c1.51-1.06,2.27-2.98,2.27-5.76c0-2.98-1.06-5.02-3.18-6.1
			c-1.13-0.57-2.65-0.86-4.54-0.86h-13.54v14.31H180.68z"/>
		<path class="st1" d="M210.01,8.47v25.89c0,3.04,0.58,5.57,1.73,7.58c1.71,3.04,4.6,4.56,8.66,4.56c4.87,0,8.18-1.64,9.93-4.93
			c0.94-1.79,1.42-4.19,1.42-7.21V8.47h5.76v23.52c0,5.15-0.7,9.11-2.1,11.89c-2.57,5.06-7.42,7.58-14.55,7.58
			c-7.13,0-11.97-2.53-14.52-7.58c-1.4-2.77-2.1-6.74-2.1-11.89V8.47H210.01z"/>
		<path class="st1" d="M246.77,8.47h18.83c3.72,0,6.73,1.05,9.02,3.15c2.29,2.1,3.43,5.05,3.43,8.85c0,3.27-1.02,6.12-3.06,8.54
			c-2.04,2.42-5.17,3.64-9.38,3.64h-13.14v17.71h-5.7V8.47z M268.88,14.23c-1.25-0.59-2.97-0.88-5.15-0.88h-11.26v14.51h11.26
			c2.54,0,4.6-0.54,6.19-1.62c1.58-1.08,2.38-2.99,2.38-5.73C272.3,17.42,271.16,15.33,268.88,14.23z"/>
		<path class="st1" d="M285.9,8.47h18.83c3.72,0,6.73,1.05,9.02,3.15c2.29,2.1,3.43,5.05,3.43,8.85c0,3.27-1.02,6.12-3.06,8.54
			c-2.04,2.42-5.17,3.64-9.38,3.64h-13.14v17.71h-5.7V8.47z M308.02,14.23c-1.25-0.59-2.97-0.88-5.15-0.88h-11.26v14.51h11.26
			c2.54,0,4.6-0.54,6.19-1.62c1.58-1.08,2.38-2.99,2.38-5.73C311.43,17.42,310.3,15.33,308.02,14.23z"/>
	</g>
</g>
</svg>
